M48
;Layer_Color=9474304
;FILE_FORMAT=4:4
METRIC,LZ
;TYPE=PLATED
T2F00S00C0.7112
T3F00S00C1.0000
T4F00S00C1.1000
%
T02
X00042Y00061
X000475Y00089
Y00153
X0004Y00182
X00114Y00166
X00116Y00144
X00134Y00155
X0015Y00122
X00138Y00109
X00146Y00091
X00189Y0009
Y00074
X00209Y00072
X00209Y0005
X00164Y00049
X00171Y00067
X00134Y00054
X00115Y00115
X00187Y00112
Y00131
X0018Y00148
X0021Y00134
X00209Y00115
X00206Y00094
X00239Y00078
X00261Y00059
X00281
Y00078
X00299Y0008
X00305Y00049
X00319Y00062
X00362Y00091
X00356Y00112
X00346Y0013
X00314Y00138
X0029Y00153
X0028Y00165
X00277Y00126
X00263295Y00109517
X00251Y0012
X00227Y00176
X003085Y00186
X00346Y00182
X00262291Y00035807
X00366402Y00120916
X00397Y00136
X00434Y00157
X00436Y00197
X00498Y00198
X00453Y00123
X00457Y000945
X00387Y00244
T03
X00338Y00095
Y0016
X00383
Y00095
T04
X001218Y00023
X001472
X001726
X00198
X002234
X002498
X002752
X003006
X00326
X003514
X00351Y00225
X003256
X003002
X002748
X002494
X00223
X001976
X001722
X001468
X001214
X003754Y00226
X004008
X004262
X004516
X00477
X00489Y001554
X005144
Y0013
Y001046
X00489
Y0013
X004774Y00024
X00452
X004266
X004012
X003758
M30
