G04*
G04 #@! TF.GenerationSoftware,Altium Limited,Altium Designer,20.1.7 (139)*
G04*
G04 Layer_Color=32896*
%FSLAX44Y44*%
%MOMM*%
G71*
G04*
G04 #@! TF.SameCoordinates,2F106875-763D-4B6E-BA67-D31112414CBE*
G04*
G04*
G04 #@! TF.FilePolarity,Positive*
G04*
G01*
G75*
%ADD14C,0.2540*%
%ADD63C,0.0000*%
D14*
X-23303Y229236D02*
X-25842Y231775D01*
X-30921D01*
X-33460Y229236D01*
Y219079D01*
X-30921Y216540D01*
X-25842D01*
X-23303Y219079D01*
X-18225Y231775D02*
Y216540D01*
Y224158D01*
X-15686Y226697D01*
X-10607D01*
X-8068Y224158D01*
Y216540D01*
X4628D02*
X-451D01*
X-2990Y219079D01*
Y224158D01*
X-451Y226697D01*
X4628D01*
X7167Y224158D01*
Y221618D01*
X-2990D01*
X22402Y226697D02*
X14784D01*
X12245Y224158D01*
Y219079D01*
X14784Y216540D01*
X22402D01*
X27480D02*
Y231775D01*
Y221618D02*
X35098Y226697D01*
X27480Y221618D02*
X35098Y216540D01*
X57950D02*
Y226697D01*
X63029Y231775D01*
X68107Y226697D01*
Y216540D01*
Y224158D01*
X57950D01*
X73186Y226697D02*
Y216540D01*
Y221618D01*
X75725Y224158D01*
X78264Y226697D01*
X80803D01*
X98577Y231775D02*
Y216540D01*
X90960D01*
X88421Y219079D01*
Y224158D01*
X90960Y226697D01*
X98577D01*
X103656D02*
Y219079D01*
X106195Y216540D01*
X113812D01*
Y226697D01*
X118891Y216540D02*
X123969D01*
X121430D01*
Y226697D01*
X118891D01*
X131587Y216540D02*
Y226697D01*
X139204D01*
X141743Y224158D01*
Y216540D01*
X149361D02*
X154439D01*
X156978Y219079D01*
Y224158D01*
X154439Y226697D01*
X149361D01*
X146822Y224158D01*
Y219079D01*
X149361Y216540D01*
X179831D02*
X184909D01*
X187449Y219079D01*
Y224158D01*
X184909Y226697D01*
X179831D01*
X177292Y224158D01*
Y219079D01*
X179831Y216540D01*
X195066D02*
Y229236D01*
Y224158D01*
X192527D01*
X197605D01*
X195066D01*
Y229236D01*
X197605Y231775D01*
X207762Y216540D02*
Y229236D01*
Y224158D01*
X205223D01*
X210301D01*
X207762D01*
Y229236D01*
X210301Y231775D01*
X217919Y216540D02*
X222997D01*
X220458D01*
Y226697D01*
X217919D01*
X240771D02*
X233154D01*
X230615Y224158D01*
Y219079D01*
X233154Y216540D01*
X240771D01*
X245850D02*
X250928D01*
X248389D01*
Y226697D01*
X245850D01*
X261085D02*
X266163D01*
X268702Y224158D01*
Y216540D01*
X261085D01*
X258545Y219079D01*
X261085Y221618D01*
X268702D01*
X273781Y216540D02*
X278859D01*
X276320D01*
Y231775D01*
X273781D01*
X301712Y226697D02*
Y219079D01*
X304251Y216540D01*
X306790Y219079D01*
X309329Y216540D01*
X311868Y219079D01*
Y226697D01*
X324564Y216540D02*
X319486D01*
X316947Y219079D01*
Y224158D01*
X319486Y226697D01*
X324564D01*
X327103Y224158D01*
Y221618D01*
X316947D01*
X332182Y231775D02*
Y216540D01*
X339799D01*
X342338Y219079D01*
Y221618D01*
Y224158D01*
X339799Y226697D01*
X332182D01*
X347417Y216540D02*
X355034D01*
X357574Y219079D01*
X355034Y221618D01*
X349956D01*
X347417Y224158D01*
X349956Y226697D01*
X357574D01*
X362652Y216540D02*
X367730D01*
X365191D01*
Y226697D01*
X362652D01*
X377887Y229236D02*
Y226697D01*
X375348D01*
X380426D01*
X377887D01*
Y219079D01*
X380426Y216540D01*
X395661D02*
X390583D01*
X388044Y219079D01*
Y224158D01*
X390583Y226697D01*
X395661D01*
X398200Y224158D01*
Y221618D01*
X388044D01*
X421053Y216540D02*
Y229236D01*
Y224158D01*
X418514D01*
X423592D01*
X421053D01*
Y229236D01*
X423592Y231775D01*
X433749Y216540D02*
X438827D01*
X441366Y219079D01*
Y224158D01*
X438827Y226697D01*
X433749D01*
X431210Y224158D01*
Y219079D01*
X433749Y216540D01*
X446445Y226697D02*
Y216540D01*
Y221618D01*
X448984Y224158D01*
X451523Y226697D01*
X454062D01*
X476915Y231775D02*
Y216540D01*
X487072D01*
X492150D02*
X497228D01*
X494689D01*
Y226697D01*
X492150D01*
X515003D02*
X507385D01*
X504846Y224158D01*
Y219079D01*
X507385Y216540D01*
X515003D01*
X527698D02*
X522620D01*
X520081Y219079D01*
Y224158D01*
X522620Y226697D01*
X527698D01*
X530238Y224158D01*
Y221618D01*
X520081D01*
X535316Y216540D02*
Y226697D01*
X542934D01*
X545473Y224158D01*
Y216540D01*
X560708Y226697D02*
X553090D01*
X550551Y224158D01*
Y219079D01*
X553090Y216540D01*
X560708D01*
X573404D02*
X568325D01*
X565786Y219079D01*
Y224158D01*
X568325Y226697D01*
X573404D01*
X575943Y224158D01*
Y221618D01*
X565786D01*
X169540Y200697D02*
Y193079D01*
X172079Y190540D01*
X174618Y193079D01*
X177157Y190540D01*
X179697Y193079D01*
Y200697D01*
X184775D02*
Y193079D01*
X187314Y190540D01*
X189853Y193079D01*
X192393Y190540D01*
X194932Y193079D01*
Y200697D01*
X200010D02*
Y193079D01*
X202549Y190540D01*
X205089Y193079D01*
X207628Y190540D01*
X210167Y193079D01*
Y200697D01*
X215245Y190540D02*
Y193079D01*
X217784D01*
Y190540D01*
X215245D01*
X230480Y200697D02*
X235559D01*
X238098Y198158D01*
Y190540D01*
X230480D01*
X227941Y193079D01*
X230480Y195618D01*
X238098D01*
X243176Y200697D02*
Y190540D01*
Y195618D01*
X245715Y198158D01*
X248255Y200697D01*
X250794D01*
X268568Y205775D02*
Y190540D01*
X260950D01*
X258411Y193079D01*
Y198158D01*
X260950Y200697D01*
X268568D01*
X273646D02*
Y193079D01*
X276185Y190540D01*
X283803D01*
Y200697D01*
X288881Y190540D02*
X293960D01*
X291421D01*
Y200697D01*
X288881D01*
X301577Y190540D02*
Y200697D01*
X309195D01*
X311734Y198158D01*
Y190540D01*
X319352D02*
X324430D01*
X326969Y193079D01*
Y198158D01*
X324430Y200697D01*
X319352D01*
X316812Y198158D01*
Y193079D01*
X319352Y190540D01*
X332047D02*
Y193079D01*
X334587D01*
Y190540D01*
X332047D01*
X354900Y200697D02*
X347282D01*
X344743Y198158D01*
Y193079D01*
X347282Y190540D01*
X354900D01*
X370135Y200697D02*
X362518D01*
X359978Y198158D01*
Y193079D01*
X362518Y190540D01*
X370135D01*
D63*
X287941Y117020D02*
Y134980D01*
X265490Y94569D02*
X267645Y96724D01*
X269082Y98161D02*
X271238Y100316D01*
X272674Y101753D02*
X274650Y103729D01*
X276087Y105166D02*
X278242Y107321D01*
X279679Y108758D02*
X281834Y110913D01*
X283271Y112350D02*
X285247Y114326D01*
X286684Y115763D02*
X288839Y117918D01*
X290276Y119355D02*
X292431Y121510D01*
X290276Y132645D02*
X292431Y130490D01*
X286684Y136237D02*
X288839Y134082D01*
X283271Y139650D02*
X285247Y137674D01*
X279679Y143242D02*
X281834Y141087D01*
X276087Y146834D02*
X278242Y144679D01*
X272674Y150247D02*
X274650Y148271D01*
X269082Y153839D02*
X271238Y151684D01*
X265490Y157431D02*
X267645Y155276D01*
X254355D02*
X256510Y157431D01*
X250763Y151684D02*
X252918Y153839D01*
X247350Y148271D02*
X249326Y150247D01*
X243758Y144679D02*
X245913Y146834D01*
X240166Y141087D02*
X242321Y143242D01*
X236753Y137674D02*
X238729Y139650D01*
X233161Y134082D02*
X235317Y136237D01*
X229569Y130490D02*
X231724Y132645D01*
X229569Y121510D02*
X231724Y119355D01*
X233161Y117918D02*
X235317Y115763D01*
X236753Y114326D02*
X238729Y112350D01*
X240166Y110913D02*
X242321Y108758D01*
X243758Y107321D02*
X245913Y105166D01*
X247350Y103729D02*
X249326Y101753D01*
X250763Y100316D02*
X252918Y98161D01*
X254355Y96724D02*
X256510Y94569D01*
X225079Y126000D02*
X261000Y161921D01*
X225079Y126000D02*
X261000Y90079D01*
X296921Y126000D01*
X261000Y161921D02*
X296921Y126000D01*
X287941Y117020D02*
Y134980D01*
X265490Y94569D02*
X267645Y96724D01*
X269082Y98161D02*
X271238Y100316D01*
X272674Y101753D02*
X274650Y103729D01*
X276087Y105166D02*
X278242Y107321D01*
X279679Y108758D02*
X281834Y110913D01*
X283271Y112350D02*
X285247Y114326D01*
X286684Y115763D02*
X288839Y117918D01*
X290276Y119355D02*
X292431Y121510D01*
X290276Y132645D02*
X292431Y130490D01*
X286684Y136237D02*
X288839Y134082D01*
X283271Y139650D02*
X285247Y137674D01*
X279679Y143242D02*
X281834Y141087D01*
X276087Y146834D02*
X278242Y144679D01*
X272674Y150247D02*
X274650Y148271D01*
X269082Y153839D02*
X271238Y151684D01*
X265490Y157431D02*
X267645Y155276D01*
X254355D02*
X256510Y157431D01*
X250763Y151684D02*
X252918Y153839D01*
X247350Y148271D02*
X249326Y150247D01*
X243758Y144679D02*
X245913Y146834D01*
X240166Y141087D02*
X242321Y143242D01*
X236753Y137674D02*
X238729Y139650D01*
X233161Y134082D02*
X235317Y136237D01*
X229569Y130490D02*
X231724Y132645D01*
X229569Y121510D02*
X231724Y119355D01*
X233161Y117918D02*
X235317Y115763D01*
X236753Y114326D02*
X238729Y112350D01*
X240166Y110913D02*
X242321Y108758D01*
X243758Y107321D02*
X245913Y105166D01*
X247350Y103729D02*
X249326Y101753D01*
X250763Y100316D02*
X252918Y98161D01*
X254355Y96724D02*
X256510Y94569D01*
X225079Y126000D02*
X261000Y161921D01*
X225079Y126000D02*
X261000Y90079D01*
X296921Y126000D01*
X261000Y161921D02*
X296921Y126000D01*
M02*
