G04*
G04 #@! TF.GenerationSoftware,Altium Limited,Altium Designer,20.1.7 (139)*
G04*
G04 Layer_Color=8421504*
%FSLAX44Y44*%
%MOMM*%
G71*
G04*
G04 #@! TF.SameCoordinates,2F106875-763D-4B6E-BA67-D31112414CBE*
G04*
G04*
G04 #@! TF.FilePolarity,Positive*
G04*
G01*
G75*
G04:AMPARAMS|DCode=15|XSize=0.3048mm|YSize=0.8128mm|CornerRadius=0mm|HoleSize=0mm|Usage=FLASHONLY|Rotation=135.000|XOffset=0mm|YOffset=0mm|HoleType=Round|Shape=Rectangle|*
%AMROTATEDRECTD15*
4,1,4,0.3951,0.1796,-0.1796,-0.3951,-0.3951,-0.1796,0.1796,0.3951,0.3951,0.1796,0.0*
%
%ADD15ROTATEDRECTD15*%

G04:AMPARAMS|DCode=16|XSize=0.3048mm|YSize=0.8128mm|CornerRadius=0mm|HoleSize=0mm|Usage=FLASHONLY|Rotation=45.000|XOffset=0mm|YOffset=0mm|HoleType=Round|Shape=Rectangle|*
%AMROTATEDRECTD16*
4,1,4,0.1796,-0.3951,-0.3951,0.1796,-0.1796,0.3951,0.3951,-0.1796,0.1796,-0.3951,0.0*
%
%ADD16ROTATEDRECTD16*%

%ADD17R,2.5000X2.6000*%
%ADD18R,1.3970X0.3480*%
%ADD19R,1.3500X0.5500*%
%ADD20R,0.5500X1.3500*%
%ADD21R,0.9000X0.6000*%
%ADD22R,0.6858X0.5588*%
%ADD23R,0.9000X1.3000*%
%ADD24R,1.3000X0.9000*%
%ADD25R,3.2600X1.7600*%
%ADD26R,0.9600X1.7600*%
%ADD27R,1.4000X1.6000*%
%ADD28R,1.9000X1.9000*%
%ADD29R,1.3500X0.4000*%
%ADD30R,0.8000X0.8000*%
%ADD31R,0.8000X0.8000*%
D15*
X290814Y131029D02*
D03*
X287222Y134621D02*
D03*
X283810Y138034D02*
D03*
X280218Y141626D02*
D03*
X276626Y145218D02*
D03*
X273034Y148810D02*
D03*
X269621Y152222D02*
D03*
X266029Y155814D02*
D03*
X231185Y120971D02*
D03*
X234778Y117379D02*
D03*
X238190Y113967D02*
D03*
X241782Y110374D02*
D03*
X245374Y106782D02*
D03*
X248967Y103190D02*
D03*
X252379Y99778D02*
D03*
X255971Y96186D02*
D03*
D16*
Y155814D02*
D03*
X252379Y152222D02*
D03*
X248967Y148810D02*
D03*
X245374Y145218D02*
D03*
X241782Y141626D02*
D03*
X238190Y138034D02*
D03*
X234778Y134621D02*
D03*
X231185Y131029D02*
D03*
X266029Y96186D02*
D03*
X269621Y99778D02*
D03*
X273034Y103190D02*
D03*
X276626Y106782D02*
D03*
X280218Y110374D02*
D03*
X283810Y113967D02*
D03*
X287222Y117379D02*
D03*
X290814Y120971D02*
D03*
D17*
X308500Y186000D02*
D03*
X259500D02*
D03*
D18*
X165000Y165000D02*
D03*
Y158500D02*
D03*
Y152000D02*
D03*
Y145500D02*
D03*
Y139000D02*
D03*
Y132500D02*
D03*
Y126000D02*
D03*
Y119500D02*
D03*
Y113000D02*
D03*
Y106500D02*
D03*
Y100000D02*
D03*
Y93500D02*
D03*
Y87000D02*
D03*
Y80500D02*
D03*
X91880Y165000D02*
D03*
Y158500D02*
D03*
Y152000D02*
D03*
Y145500D02*
D03*
Y139000D02*
D03*
Y126000D02*
D03*
Y132500D02*
D03*
Y119500D02*
D03*
Y113000D02*
D03*
Y106500D02*
D03*
Y100000D02*
D03*
Y93500D02*
D03*
Y87000D02*
D03*
Y80500D02*
D03*
D19*
X71000Y134320D02*
D03*
Y114000D02*
D03*
D20*
X110680Y191000D02*
D03*
X131000D02*
D03*
X417320Y183000D02*
D03*
X397000D02*
D03*
X226320Y96000D02*
D03*
X206000D02*
D03*
X458320Y59000D02*
D03*
X438000D02*
D03*
X280320Y78000D02*
D03*
X260000D02*
D03*
X260680Y55000D02*
D03*
X281000D02*
D03*
D21*
X69000Y82000D02*
D03*
Y97000D02*
D03*
D22*
X519000Y176616D02*
D03*
Y201000D02*
D03*
D23*
X228000Y72000D02*
D03*
X209000D02*
D03*
X524000Y233000D02*
D03*
X505000D02*
D03*
D24*
X89000Y34000D02*
D03*
Y15000D02*
D03*
X498000Y198000D02*
D03*
Y179000D02*
D03*
X227000Y176000D02*
D03*
Y195000D02*
D03*
X314000Y138000D02*
D03*
Y157000D02*
D03*
X187000Y112000D02*
D03*
Y131000D02*
D03*
X395000Y74000D02*
D03*
Y55000D02*
D03*
X342000Y54000D02*
D03*
Y73000D02*
D03*
X314000Y100000D02*
D03*
Y119000D02*
D03*
X369000Y73000D02*
D03*
Y54000D02*
D03*
D25*
X434000Y157000D02*
D03*
D26*
X457000Y94500D02*
D03*
X434000D02*
D03*
X411000D02*
D03*
D27*
X47500Y153000D02*
D03*
Y89000D02*
D03*
D28*
X23000Y133000D02*
D03*
Y109000D02*
D03*
D29*
X49750Y108000D02*
D03*
Y127500D02*
D03*
Y121000D02*
D03*
Y114500D02*
D03*
Y134000D02*
D03*
D30*
X74000Y153000D02*
D03*
Y169000D02*
D03*
X189000Y90000D02*
D03*
Y74000D02*
D03*
X418000Y58000D02*
D03*
Y74000D02*
D03*
D31*
X75000Y193000D02*
D03*
X91000D02*
D03*
M02*
