G04*
G04 #@! TF.GenerationSoftware,Altium Limited,Altium Designer,20.1.7 (139)*
G04*
G04 Layer_Color=32768*
%FSLAX44Y44*%
%MOMM*%
G71*
G04*
G04 #@! TF.SameCoordinates,2F106875-763D-4B6E-BA67-D31112414CBE*
G04*
G04*
G04 #@! TF.FilePolarity,Positive*
G04*
G01*
G75*
%ADD14C,0.2540*%
D14*
X93540Y166201D02*
Y153705D01*
X97705Y149540D01*
X101871Y153705D01*
X106036Y149540D01*
X110201Y153705D01*
Y166201D01*
X118532D02*
Y153705D01*
X122697Y149540D01*
X126863Y153705D01*
X131028Y149540D01*
X135193Y153705D01*
Y166201D01*
X143524D02*
Y153705D01*
X147689Y149540D01*
X151854Y153705D01*
X156020Y149540D01*
X160185Y153705D01*
Y166201D01*
X168516Y149540D02*
Y153705D01*
X172681D01*
Y149540D01*
X168516D01*
X193508Y166201D02*
X201838D01*
X206004Y162036D01*
Y149540D01*
X193508D01*
X189342Y153705D01*
X193508Y157871D01*
X206004D01*
X214334Y166201D02*
Y149540D01*
Y157871D01*
X218500Y162036D01*
X222665Y166201D01*
X226830D01*
X255987Y174532D02*
Y149540D01*
X243491D01*
X239326Y153705D01*
Y162036D01*
X243491Y166201D01*
X255987D01*
X264318D02*
Y153705D01*
X268484Y149540D01*
X280979D01*
Y166201D01*
X289310Y149540D02*
X297641D01*
X293475D01*
Y166201D01*
X289310D01*
X310137Y149540D02*
Y166201D01*
X322633D01*
X326798Y162036D01*
Y149540D01*
X339294D02*
X347625D01*
X351790Y153705D01*
Y162036D01*
X347625Y166201D01*
X339294D01*
X335129Y162036D01*
Y153705D01*
X339294Y149540D01*
X360121D02*
Y153705D01*
X364286D01*
Y149540D01*
X360121D01*
X397608Y166201D02*
X385112D01*
X380947Y162036D01*
Y153705D01*
X385112Y149540D01*
X397608D01*
X422600Y166201D02*
X410104D01*
X405939Y162036D01*
Y153705D01*
X410104Y149540D01*
X422600D01*
X-298460Y198871D02*
Y223863D01*
X-285964D01*
X-281799Y219697D01*
Y211367D01*
X-285964Y207201D01*
X-298460D01*
X-290129D02*
X-281799Y198871D01*
X-260972D02*
X-269303D01*
X-273468Y203036D01*
Y211367D01*
X-269303Y215532D01*
X-260972D01*
X-256807Y211367D01*
Y207201D01*
X-273468D01*
X-244311Y198871D02*
Y219697D01*
Y211367D01*
X-248476D01*
X-240145D01*
X-244311D01*
Y219697D01*
X-240145Y223863D01*
X-215154Y198871D02*
X-223484D01*
X-227650Y203036D01*
Y211367D01*
X-223484Y215532D01*
X-215154D01*
X-210988Y211367D01*
Y207201D01*
X-227650D01*
X-202658Y215532D02*
Y198871D01*
Y207201D01*
X-198492Y211367D01*
X-194327Y215532D01*
X-190162D01*
X-152674Y198871D02*
Y215532D01*
X-144343Y223863D01*
X-136012Y215532D01*
Y198871D01*
Y211367D01*
X-152674D01*
X-127682Y215532D02*
Y198871D01*
Y207201D01*
X-123517Y211367D01*
X-119351Y215532D01*
X-115186D01*
X-86029Y223863D02*
Y198871D01*
X-98525D01*
X-102690Y203036D01*
Y211367D01*
X-98525Y215532D01*
X-86029D01*
X-77698D02*
Y203036D01*
X-73533Y198871D01*
X-61037D01*
Y215532D01*
X-52706Y198871D02*
X-44376D01*
X-48541D01*
Y215532D01*
X-52706D01*
X-31879Y198871D02*
Y215532D01*
X-19383D01*
X-15218Y211367D01*
Y198871D01*
X-2722D02*
X5608D01*
X9774Y203036D01*
Y211367D01*
X5608Y215532D01*
X-2722D01*
X-6888Y211367D01*
Y203036D01*
X-2722Y198871D01*
X55592Y223863D02*
X47262D01*
X43096Y219697D01*
Y203036D01*
X47262Y198871D01*
X55592D01*
X59758Y203036D01*
Y219697D01*
X55592Y223863D01*
X72253Y198871D02*
Y219697D01*
Y211367D01*
X68088D01*
X76419D01*
X72253D01*
Y219697D01*
X76419Y223863D01*
X93080Y198871D02*
Y219697D01*
Y211367D01*
X88915D01*
X97245D01*
X93080D01*
Y219697D01*
X97245Y223863D01*
X109741Y198871D02*
X118072D01*
X113907D01*
Y215532D01*
X109741D01*
X147229D02*
X134733D01*
X130568Y211367D01*
Y203036D01*
X134733Y198871D01*
X147229D01*
X155560D02*
X163891D01*
X159725D01*
Y215532D01*
X155560D01*
X180552D02*
X188883D01*
X193048Y211367D01*
Y198871D01*
X180552D01*
X176387Y203036D01*
X180552Y207201D01*
X193048D01*
X201378Y198871D02*
X209709D01*
X205544D01*
Y223863D01*
X201378D01*
X247197D02*
Y198871D01*
X255528Y207201D01*
X263858Y198871D01*
Y223863D01*
X284685Y198871D02*
X276354D01*
X272189Y203036D01*
Y211367D01*
X276354Y215532D01*
X284685D01*
X288850Y211367D01*
Y207201D01*
X272189D01*
X297181Y223863D02*
Y198871D01*
X309677D01*
X313842Y203036D01*
Y207201D01*
Y211367D01*
X309677Y215532D01*
X297181D01*
X322173Y198871D02*
X334669D01*
X338834Y203036D01*
X334669Y207201D01*
X326338D01*
X322173Y211367D01*
X326338Y215532D01*
X338834D01*
X347165Y198871D02*
X355495D01*
X351330D01*
Y215532D01*
X347165D01*
X372157Y219697D02*
Y215532D01*
X367991D01*
X376322D01*
X372157D01*
Y203036D01*
X376322Y198871D01*
X401314D02*
X392983D01*
X388818Y203036D01*
Y211367D01*
X392983Y215532D01*
X401314D01*
X405479Y211367D01*
Y207201D01*
X388818D01*
X442967Y198871D02*
Y219697D01*
Y211367D01*
X438802D01*
X447132D01*
X442967D01*
Y219697D01*
X447132Y223863D01*
X463794Y198871D02*
X472124D01*
X476290Y203036D01*
Y211367D01*
X472124Y215532D01*
X463794D01*
X459628Y211367D01*
Y203036D01*
X463794Y198871D01*
X484620Y215532D02*
Y198871D01*
Y207201D01*
X488786Y211367D01*
X492951Y215532D01*
X497116D01*
X534604Y198871D02*
Y223863D01*
X542935Y215532D01*
X551265Y223863D01*
Y198871D01*
X563761Y215532D02*
X572092D01*
X576257Y211367D01*
Y198871D01*
X563761D01*
X559596Y203036D01*
X563761Y207201D01*
X576257D01*
X584588Y198871D02*
Y215532D01*
X597084D01*
X601249Y211367D01*
Y198871D01*
X609580Y215532D02*
Y203036D01*
X613745Y198871D01*
X626241D01*
Y215532D01*
X638737Y198871D02*
Y219697D01*
Y211367D01*
X634572D01*
X642902D01*
X638737D01*
Y219697D01*
X642902Y223863D01*
X659564Y215532D02*
X667894D01*
X672060Y211367D01*
Y198871D01*
X659564D01*
X655398Y203036D01*
X659564Y207201D01*
X672060D01*
X697052Y215532D02*
X684556D01*
X680390Y211367D01*
Y203036D01*
X684556Y198871D01*
X697052D01*
X709548Y219697D02*
Y215532D01*
X705382D01*
X713713D01*
X709548D01*
Y203036D01*
X713713Y198871D01*
X726209Y215532D02*
Y203036D01*
X730374Y198871D01*
X742870D01*
Y215532D01*
X751201D02*
Y198871D01*
Y207201D01*
X755366Y211367D01*
X759531Y215532D01*
X763697D01*
X776193Y198871D02*
X784523D01*
X780358D01*
Y215532D01*
X776193D01*
X797019Y198871D02*
Y215532D01*
X809515D01*
X813681Y211367D01*
Y198871D01*
X830342Y190540D02*
X834507D01*
X838672Y194705D01*
Y215532D01*
X826177D01*
X822011Y211367D01*
Y203036D01*
X826177Y198871D01*
X838672D01*
X871995D02*
Y223863D01*
X888656Y198871D01*
Y223863D01*
X901152Y198871D02*
X909483D01*
X913648Y203036D01*
Y211367D01*
X909483Y215532D01*
X901152D01*
X896987Y211367D01*
Y203036D01*
X901152Y198871D01*
X926144Y219697D02*
Y215532D01*
X921979D01*
X930310D01*
X926144D01*
Y203036D01*
X930310Y198871D01*
X955302D02*
X946971D01*
X942805Y203036D01*
Y211367D01*
X946971Y215532D01*
X955302D01*
X959467Y211367D01*
Y207201D01*
X942805D01*
X967797Y198871D02*
X980293D01*
X984459Y203036D01*
X980293Y207201D01*
X971963D01*
X967797Y211367D01*
X971963Y215532D01*
X984459D01*
M02*
