G04*
G04 #@! TF.GenerationSoftware,Altium Limited,Altium Designer,20.1.7 (139)*
G04*
G04 Layer_Color=8388736*
%FSLAX44Y44*%
%MOMM*%
G71*
G04*
G04 #@! TF.SameCoordinates,2F106875-763D-4B6E-BA67-D31112414CBE*
G04*
G04*
G04 #@! TF.FilePolarity,Positive*
G04*
G01*
G75*
%ADD10C,0.1524*%
%ADD11C,0.2000*%
%ADD14C,0.2540*%
G36*
X-59387Y139003D02*
X-59218D01*
X-59034Y138989D01*
X-58837Y138975D01*
X-58386Y138932D01*
X-57921Y138862D01*
X-57470Y138777D01*
X-57258Y138721D01*
X-57047Y138650D01*
X-57033D01*
X-57004Y138636D01*
X-56948Y138608D01*
X-56877Y138580D01*
X-56779Y138552D01*
X-56680Y138495D01*
X-56441Y138383D01*
X-56187Y138242D01*
X-55905Y138058D01*
X-55651Y137847D01*
X-55411Y137593D01*
Y137579D01*
X-55383Y137565D01*
X-55355Y137523D01*
X-55327Y137466D01*
X-55285Y137396D01*
X-55228Y137325D01*
X-55129Y137114D01*
X-55031Y136860D01*
X-54932Y136564D01*
X-54876Y136212D01*
X-54848Y135831D01*
Y135690D01*
X-54862Y135591D01*
X-54876Y135479D01*
X-54904Y135338D01*
X-54932Y135183D01*
X-54974Y135013D01*
X-55031Y134844D01*
X-55087Y134661D01*
X-55172Y134478D01*
X-55271Y134294D01*
X-55383Y134111D01*
X-55524Y133928D01*
X-55679Y133759D01*
X-55848Y133604D01*
X-55863Y133590D01*
X-55905Y133561D01*
X-55975Y133519D01*
X-56088Y133449D01*
X-56215Y133378D01*
X-56384Y133308D01*
X-56582Y133209D01*
X-56807Y133124D01*
X-57061Y133040D01*
X-57357Y132955D01*
X-57681Y132871D01*
X-58048Y132800D01*
X-58442Y132730D01*
X-58865Y132687D01*
X-59330Y132659D01*
X-59824Y132645D01*
X-59838D01*
X-59894D01*
X-59993D01*
X-60106D01*
X-60261Y132659D01*
X-60430D01*
X-60613Y132673D01*
X-60825Y132687D01*
X-61262Y132730D01*
X-61727Y132800D01*
X-62192Y132885D01*
X-62404Y132941D01*
X-62615Y132998D01*
X-62629D01*
X-62657Y133012D01*
X-62714Y133040D01*
X-62784Y133068D01*
X-62883Y133096D01*
X-62982Y133153D01*
X-63221Y133265D01*
X-63475Y133406D01*
X-63743Y133590D01*
X-64011Y133801D01*
X-64236Y134055D01*
Y134069D01*
X-64264Y134083D01*
X-64293Y134125D01*
X-64321Y134182D01*
X-64377Y134252D01*
X-64419Y134337D01*
X-64532Y134548D01*
X-64631Y134802D01*
X-64730Y135098D01*
X-64786Y135450D01*
X-64814Y135831D01*
Y135958D01*
X-64800Y136113D01*
X-64772Y136296D01*
X-64730Y136508D01*
X-64673Y136733D01*
X-64603Y136973D01*
X-64490Y137198D01*
Y137212D01*
X-64476Y137227D01*
X-64433Y137297D01*
X-64363Y137410D01*
X-64264Y137551D01*
X-64123Y137706D01*
X-63968Y137875D01*
X-63785Y138030D01*
X-63574Y138185D01*
X-63545Y138199D01*
X-63475Y138256D01*
X-63348Y138312D01*
X-63165Y138411D01*
X-62953Y138495D01*
X-62714Y138608D01*
X-62432Y138707D01*
X-62122Y138791D01*
X-62108D01*
X-62079Y138806D01*
X-62037Y138820D01*
X-61967Y138834D01*
X-61882Y138848D01*
X-61783Y138862D01*
X-61656Y138890D01*
X-61515Y138904D01*
X-61360Y138932D01*
X-61191Y138946D01*
X-60994Y138961D01*
X-60796Y138989D01*
X-60571Y139003D01*
X-60345D01*
X-60092Y139017D01*
X-59824D01*
X-59810D01*
X-59753D01*
X-59655D01*
X-59542D01*
X-59387Y139003D01*
D02*
G37*
G36*
Y131419D02*
X-59218D01*
X-59034Y131404D01*
X-58837Y131390D01*
X-58386Y131348D01*
X-57921Y131278D01*
X-57470Y131193D01*
X-57258Y131137D01*
X-57047Y131066D01*
X-57033D01*
X-57004Y131052D01*
X-56948Y131024D01*
X-56877Y130996D01*
X-56779Y130968D01*
X-56680Y130911D01*
X-56441Y130798D01*
X-56187Y130657D01*
X-55905Y130474D01*
X-55651Y130263D01*
X-55411Y130009D01*
Y129995D01*
X-55383Y129981D01*
X-55355Y129938D01*
X-55327Y129882D01*
X-55285Y129812D01*
X-55228Y129741D01*
X-55129Y129530D01*
X-55031Y129276D01*
X-54932Y128980D01*
X-54876Y128627D01*
X-54848Y128247D01*
Y128106D01*
X-54862Y128007D01*
X-54876Y127894D01*
X-54904Y127753D01*
X-54932Y127598D01*
X-54974Y127429D01*
X-55031Y127260D01*
X-55087Y127077D01*
X-55172Y126894D01*
X-55271Y126710D01*
X-55383Y126527D01*
X-55524Y126344D01*
X-55679Y126175D01*
X-55848Y126019D01*
X-55863Y126005D01*
X-55905Y125977D01*
X-55975Y125935D01*
X-56088Y125864D01*
X-56215Y125794D01*
X-56384Y125723D01*
X-56582Y125625D01*
X-56807Y125540D01*
X-57061Y125456D01*
X-57357Y125371D01*
X-57681Y125286D01*
X-58048Y125216D01*
X-58442Y125146D01*
X-58865Y125103D01*
X-59330Y125075D01*
X-59824Y125061D01*
X-59838D01*
X-59894D01*
X-59993D01*
X-60106D01*
X-60261Y125075D01*
X-60430D01*
X-60613Y125089D01*
X-60825Y125103D01*
X-61262Y125146D01*
X-61727Y125216D01*
X-62192Y125301D01*
X-62404Y125357D01*
X-62615Y125413D01*
X-62629D01*
X-62657Y125427D01*
X-62714Y125456D01*
X-62784Y125484D01*
X-62883Y125512D01*
X-62982Y125568D01*
X-63221Y125681D01*
X-63475Y125822D01*
X-63743Y126005D01*
X-64011Y126217D01*
X-64236Y126471D01*
Y126485D01*
X-64264Y126499D01*
X-64293Y126541D01*
X-64321Y126597D01*
X-64377Y126668D01*
X-64419Y126753D01*
X-64532Y126964D01*
X-64631Y127218D01*
X-64730Y127514D01*
X-64786Y127866D01*
X-64814Y128247D01*
Y128374D01*
X-64800Y128529D01*
X-64772Y128712D01*
X-64730Y128924D01*
X-64673Y129149D01*
X-64603Y129389D01*
X-64490Y129614D01*
Y129628D01*
X-64476Y129642D01*
X-64433Y129713D01*
X-64363Y129826D01*
X-64264Y129967D01*
X-64123Y130122D01*
X-63968Y130291D01*
X-63785Y130446D01*
X-63574Y130601D01*
X-63545Y130615D01*
X-63475Y130672D01*
X-63348Y130728D01*
X-63165Y130827D01*
X-62953Y130911D01*
X-62714Y131024D01*
X-62432Y131123D01*
X-62122Y131207D01*
X-62108D01*
X-62079Y131221D01*
X-62037Y131235D01*
X-61967Y131250D01*
X-61882Y131264D01*
X-61783Y131278D01*
X-61656Y131306D01*
X-61515Y131320D01*
X-61360Y131348D01*
X-61191Y131362D01*
X-60994Y131376D01*
X-60796Y131404D01*
X-60571Y131419D01*
X-60345D01*
X-60092Y131433D01*
X-59824D01*
X-59810D01*
X-59753D01*
X-59655D01*
X-59542D01*
X-59387Y131419D01*
D02*
G37*
G36*
X-55017Y121945D02*
X-56384D01*
Y123313D01*
X-55017D01*
Y121945D01*
D02*
G37*
G36*
X-58090Y120141D02*
X-57977Y120127D01*
X-57850Y120113D01*
X-57695Y120085D01*
X-57540Y120056D01*
X-57174Y119972D01*
X-56793Y119831D01*
X-56596Y119746D01*
X-56412Y119634D01*
X-56215Y119521D01*
X-56032Y119380D01*
X-56018Y119366D01*
X-55975Y119338D01*
X-55919Y119281D01*
X-55848Y119211D01*
X-55764Y119112D01*
X-55651Y118999D01*
X-55552Y118858D01*
X-55440Y118703D01*
X-55327Y118534D01*
X-55228Y118337D01*
X-55129Y118125D01*
X-55031Y117900D01*
X-54960Y117660D01*
X-54904Y117392D01*
X-54862Y117110D01*
X-54848Y116814D01*
Y116687D01*
X-54862Y116589D01*
X-54876Y116476D01*
X-54890Y116349D01*
X-54904Y116194D01*
X-54946Y116039D01*
X-55031Y115686D01*
X-55158Y115334D01*
X-55242Y115151D01*
X-55341Y114967D01*
X-55454Y114798D01*
X-55581Y114629D01*
X-55595Y114615D01*
X-55609Y114587D01*
X-55665Y114559D01*
X-55722Y114502D01*
X-55792Y114432D01*
X-55877Y114361D01*
X-55989Y114277D01*
X-56116Y114206D01*
X-56243Y114122D01*
X-56398Y114037D01*
X-56737Y113882D01*
X-57131Y113755D01*
X-57343Y113713D01*
X-57568Y113685D01*
X-57667Y114939D01*
X-57653D01*
X-57625D01*
X-57582Y114953D01*
X-57512Y114967D01*
X-57357Y115010D01*
X-57145Y115066D01*
X-56934Y115151D01*
X-56694Y115264D01*
X-56483Y115404D01*
X-56286Y115574D01*
X-56271Y115602D01*
X-56215Y115658D01*
X-56144Y115771D01*
X-56060Y115926D01*
X-55975Y116095D01*
X-55905Y116307D01*
X-55848Y116546D01*
X-55834Y116814D01*
Y116899D01*
X-55848Y116955D01*
X-55863Y117124D01*
X-55919Y117322D01*
X-55989Y117561D01*
X-56102Y117801D01*
X-56271Y118055D01*
X-56370Y118167D01*
X-56483Y118280D01*
X-56497Y118294D01*
X-56511Y118308D01*
X-56553Y118337D01*
X-56596Y118379D01*
X-56751Y118478D01*
X-56948Y118590D01*
X-57188Y118689D01*
X-57484Y118788D01*
X-57836Y118858D01*
X-58019Y118886D01*
X-58217D01*
X-58231D01*
X-58259D01*
X-58315D01*
X-58386Y118872D01*
X-58471D01*
X-58569Y118858D01*
X-58795Y118816D01*
X-59063Y118745D01*
X-59330Y118647D01*
X-59584Y118506D01*
X-59824Y118308D01*
X-59838D01*
X-59852Y118280D01*
X-59922Y118210D01*
X-60021Y118083D01*
X-60134Y117914D01*
X-60233Y117688D01*
X-60331Y117434D01*
X-60402Y117138D01*
X-60430Y116969D01*
Y116701D01*
X-60416Y116589D01*
X-60402Y116448D01*
X-60360Y116278D01*
X-60317Y116109D01*
X-60247Y115926D01*
X-60162Y115743D01*
X-60148Y115729D01*
X-60120Y115672D01*
X-60049Y115588D01*
X-59979Y115475D01*
X-59880Y115362D01*
X-59753Y115249D01*
X-59626Y115122D01*
X-59471Y115024D01*
X-59626Y113896D01*
X-64645Y114841D01*
Y119690D01*
X-63503D01*
Y115785D01*
X-60867Y115264D01*
X-60881Y115278D01*
X-60895Y115306D01*
X-60923Y115348D01*
X-60966Y115419D01*
X-61008Y115503D01*
X-61064Y115602D01*
X-61177Y115827D01*
X-61290Y116109D01*
X-61389Y116419D01*
X-61459Y116758D01*
X-61487Y116927D01*
Y117237D01*
X-61473Y117322D01*
X-61459Y117434D01*
X-61445Y117561D01*
X-61417Y117702D01*
X-61375Y117857D01*
X-61276Y118196D01*
X-61205Y118379D01*
X-61107Y118562D01*
X-61008Y118745D01*
X-60895Y118929D01*
X-60754Y119098D01*
X-60599Y119267D01*
X-60585Y119281D01*
X-60557Y119309D01*
X-60515Y119352D01*
X-60444Y119408D01*
X-60345Y119479D01*
X-60247Y119549D01*
X-60120Y119634D01*
X-59979Y119718D01*
X-59824Y119789D01*
X-59655Y119873D01*
X-59457Y119944D01*
X-59260Y120014D01*
X-59049Y120070D01*
X-58809Y120113D01*
X-58569Y120141D01*
X-58315Y120155D01*
X-58301D01*
X-58259D01*
X-58189D01*
X-58090Y120141D01*
D02*
G37*
G36*
X-55017Y105931D02*
X-55031D01*
X-55087D01*
X-55172D01*
X-55285Y105945D01*
X-55411Y105960D01*
X-55552Y105988D01*
X-55693Y106016D01*
X-55848Y106072D01*
X-55863D01*
X-55877Y106086D01*
X-55961Y106115D01*
X-56088Y106171D01*
X-56257Y106256D01*
X-56455Y106368D01*
X-56680Y106509D01*
X-56906Y106664D01*
X-57145Y106862D01*
X-57160D01*
X-57174Y106890D01*
X-57258Y106960D01*
X-57385Y107087D01*
X-57568Y107270D01*
X-57780Y107482D01*
X-58033Y107750D01*
X-58315Y108074D01*
X-58611Y108426D01*
X-58626Y108441D01*
X-58668Y108497D01*
X-58738Y108581D01*
X-58823Y108680D01*
X-58936Y108807D01*
X-59063Y108962D01*
X-59204Y109117D01*
X-59359Y109300D01*
X-59697Y109653D01*
X-60035Y110005D01*
X-60204Y110175D01*
X-60374Y110330D01*
X-60529Y110471D01*
X-60684Y110583D01*
X-60698D01*
X-60712Y110611D01*
X-60754Y110640D01*
X-60811Y110668D01*
X-60966Y110766D01*
X-61149Y110879D01*
X-61375Y110978D01*
X-61614Y111077D01*
X-61882Y111133D01*
X-62136Y111161D01*
X-62150D01*
X-62164D01*
X-62249Y111147D01*
X-62389Y111133D01*
X-62544Y111091D01*
X-62742Y111034D01*
X-62939Y110936D01*
X-63137Y110809D01*
X-63334Y110640D01*
X-63362Y110611D01*
X-63418Y110541D01*
X-63489Y110442D01*
X-63588Y110287D01*
X-63672Y110090D01*
X-63757Y109864D01*
X-63813Y109597D01*
X-63827Y109300D01*
Y109216D01*
X-63813Y109159D01*
X-63799Y108990D01*
X-63757Y108793D01*
X-63700Y108581D01*
X-63602Y108342D01*
X-63475Y108116D01*
X-63306Y107905D01*
X-63278Y107877D01*
X-63207Y107820D01*
X-63094Y107736D01*
X-62925Y107651D01*
X-62728Y107552D01*
X-62474Y107468D01*
X-62192Y107411D01*
X-61868Y107383D01*
X-61995Y106157D01*
X-62009D01*
X-62051Y106171D01*
X-62122D01*
X-62220Y106185D01*
X-62333Y106213D01*
X-62460Y106241D01*
X-62615Y106284D01*
X-62770Y106326D01*
X-63108Y106439D01*
X-63447Y106608D01*
X-63616Y106707D01*
X-63785Y106833D01*
X-63940Y106960D01*
X-64081Y107101D01*
X-64095Y107115D01*
X-64109Y107144D01*
X-64152Y107186D01*
X-64194Y107256D01*
X-64250Y107341D01*
X-64307Y107440D01*
X-64377Y107552D01*
X-64448Y107693D01*
X-64518Y107849D01*
X-64589Y108018D01*
X-64645Y108201D01*
X-64701Y108398D01*
X-64744Y108610D01*
X-64786Y108835D01*
X-64800Y109075D01*
X-64814Y109329D01*
Y109470D01*
X-64800Y109568D01*
X-64786Y109681D01*
X-64772Y109822D01*
X-64744Y109977D01*
X-64715Y110132D01*
X-64617Y110499D01*
X-64476Y110865D01*
X-64391Y111048D01*
X-64293Y111232D01*
X-64166Y111401D01*
X-64025Y111556D01*
X-64011Y111570D01*
X-63997Y111598D01*
X-63940Y111626D01*
X-63884Y111683D01*
X-63813Y111753D01*
X-63715Y111824D01*
X-63616Y111894D01*
X-63489Y111979D01*
X-63221Y112120D01*
X-62883Y112261D01*
X-62714Y112317D01*
X-62516Y112345D01*
X-62319Y112374D01*
X-62108Y112388D01*
X-62079D01*
X-62009D01*
X-61896Y112374D01*
X-61741Y112360D01*
X-61572Y112331D01*
X-61375Y112275D01*
X-61163Y112219D01*
X-60952Y112134D01*
X-60923Y112120D01*
X-60853Y112092D01*
X-60740Y112035D01*
X-60585Y111951D01*
X-60416Y111838D01*
X-60204Y111697D01*
X-59993Y111528D01*
X-59753Y111330D01*
X-59725Y111302D01*
X-59640Y111232D01*
X-59570Y111161D01*
X-59500Y111091D01*
X-59415Y111006D01*
X-59302Y110893D01*
X-59189Y110781D01*
X-59063Y110640D01*
X-58922Y110499D01*
X-58766Y110330D01*
X-58611Y110146D01*
X-58428Y109949D01*
X-58245Y109723D01*
X-58048Y109498D01*
X-58033Y109484D01*
X-58005Y109455D01*
X-57963Y109399D01*
X-57907Y109329D01*
X-57822Y109244D01*
X-57737Y109145D01*
X-57554Y108920D01*
X-57343Y108680D01*
X-57131Y108455D01*
X-56948Y108257D01*
X-56877Y108173D01*
X-56807Y108102D01*
X-56793Y108088D01*
X-56751Y108046D01*
X-56694Y107989D01*
X-56610Y107919D01*
X-56511Y107849D01*
X-56412Y107764D01*
X-56173Y107595D01*
Y112402D01*
X-55017D01*
Y105931D01*
D02*
G37*
%LPC*%
G36*
X-59387Y137790D02*
X-59824D01*
X-59838D01*
X-59852D01*
X-59922D01*
X-60049D01*
X-60219Y137776D01*
X-60402D01*
X-60627Y137762D01*
X-60867Y137748D01*
X-61135Y137720D01*
X-61670Y137649D01*
X-61938Y137607D01*
X-62192Y137551D01*
X-62432Y137494D01*
X-62657Y137410D01*
X-62855Y137325D01*
X-63024Y137227D01*
X-63038D01*
X-63052Y137198D01*
X-63094Y137170D01*
X-63151Y137128D01*
X-63278Y137001D01*
X-63433Y136846D01*
X-63574Y136635D01*
X-63700Y136395D01*
X-63757Y136268D01*
X-63799Y136127D01*
X-63813Y135972D01*
X-63827Y135817D01*
Y135732D01*
X-63813Y135676D01*
X-63785Y135521D01*
X-63743Y135338D01*
X-63658Y135126D01*
X-63531Y134901D01*
X-63447Y134788D01*
X-63362Y134675D01*
X-63249Y134576D01*
X-63123Y134478D01*
X-63108D01*
X-63080Y134450D01*
X-63024Y134421D01*
X-62953Y134379D01*
X-62841Y134337D01*
X-62714Y134280D01*
X-62559Y134238D01*
X-62375Y134182D01*
X-62164Y134125D01*
X-61924Y134069D01*
X-61656Y134012D01*
X-61360Y133970D01*
X-61022Y133928D01*
X-60655Y133900D01*
X-60261Y133886D01*
X-59824Y133871D01*
X-59796D01*
X-59725D01*
X-59598D01*
X-59429Y133886D01*
X-59246D01*
X-59020Y133900D01*
X-58781Y133914D01*
X-58527Y133942D01*
X-57977Y134012D01*
X-57709Y134055D01*
X-57456Y134111D01*
X-57216Y134167D01*
X-56990Y134252D01*
X-56793Y134337D01*
X-56624Y134435D01*
X-56610D01*
X-56596Y134464D01*
X-56497Y134534D01*
X-56370Y134661D01*
X-56229Y134816D01*
X-56088Y135028D01*
X-55961Y135267D01*
X-55863Y135535D01*
X-55848Y135676D01*
X-55834Y135831D01*
Y135916D01*
X-55848Y135972D01*
X-55877Y136113D01*
X-55933Y136310D01*
X-56032Y136522D01*
X-56173Y136761D01*
X-56257Y136874D01*
X-56370Y136987D01*
X-56483Y137100D01*
X-56624Y137212D01*
X-56638D01*
X-56666Y137241D01*
X-56708Y137269D01*
X-56779Y137297D01*
X-56877Y137353D01*
X-57004Y137396D01*
X-57145Y137452D01*
X-57315Y137508D01*
X-57526Y137551D01*
X-57751Y137607D01*
X-58019Y137664D01*
X-58301Y137706D01*
X-58640Y137734D01*
X-58992Y137762D01*
X-59387Y137790D01*
D02*
G37*
G36*
Y130206D02*
X-59824D01*
X-59838D01*
X-59852D01*
X-59922D01*
X-60049D01*
X-60219Y130192D01*
X-60402D01*
X-60627Y130178D01*
X-60867Y130164D01*
X-61135Y130136D01*
X-61670Y130065D01*
X-61938Y130023D01*
X-62192Y129967D01*
X-62432Y129910D01*
X-62657Y129826D01*
X-62855Y129741D01*
X-63024Y129642D01*
X-63038D01*
X-63052Y129614D01*
X-63094Y129586D01*
X-63151Y129544D01*
X-63278Y129417D01*
X-63433Y129262D01*
X-63574Y129050D01*
X-63700Y128811D01*
X-63757Y128684D01*
X-63799Y128543D01*
X-63813Y128388D01*
X-63827Y128233D01*
Y128148D01*
X-63813Y128092D01*
X-63785Y127937D01*
X-63743Y127753D01*
X-63658Y127542D01*
X-63531Y127316D01*
X-63447Y127204D01*
X-63362Y127091D01*
X-63249Y126992D01*
X-63123Y126894D01*
X-63108D01*
X-63080Y126865D01*
X-63024Y126837D01*
X-62953Y126795D01*
X-62841Y126753D01*
X-62714Y126696D01*
X-62559Y126654D01*
X-62375Y126597D01*
X-62164Y126541D01*
X-61924Y126485D01*
X-61656Y126428D01*
X-61360Y126386D01*
X-61022Y126344D01*
X-60655Y126315D01*
X-60261Y126301D01*
X-59824Y126287D01*
X-59796D01*
X-59725D01*
X-59598D01*
X-59429Y126301D01*
X-59246D01*
X-59020Y126315D01*
X-58781Y126330D01*
X-58527Y126358D01*
X-57977Y126428D01*
X-57709Y126471D01*
X-57456Y126527D01*
X-57216Y126583D01*
X-56990Y126668D01*
X-56793Y126753D01*
X-56624Y126851D01*
X-56610D01*
X-56596Y126879D01*
X-56497Y126950D01*
X-56370Y127077D01*
X-56229Y127232D01*
X-56088Y127443D01*
X-55961Y127683D01*
X-55863Y127951D01*
X-55848Y128092D01*
X-55834Y128247D01*
Y128331D01*
X-55848Y128388D01*
X-55877Y128529D01*
X-55933Y128726D01*
X-56032Y128938D01*
X-56173Y129177D01*
X-56257Y129290D01*
X-56370Y129403D01*
X-56483Y129515D01*
X-56624Y129628D01*
X-56638D01*
X-56666Y129656D01*
X-56708Y129685D01*
X-56779Y129713D01*
X-56877Y129769D01*
X-57004Y129812D01*
X-57145Y129868D01*
X-57315Y129924D01*
X-57526Y129967D01*
X-57751Y130023D01*
X-58019Y130079D01*
X-58301Y130122D01*
X-58640Y130150D01*
X-58992Y130178D01*
X-59387Y130206D01*
D02*
G37*
%LPD*%
D10*
X241814Y-84907D02*
X231657D01*
Y-92524D01*
X236735Y-89985D01*
X239275D01*
X241814Y-92524D01*
Y-97602D01*
X239275Y-100141D01*
X234196D01*
X231657Y-97602D01*
X254510Y-100141D02*
Y-84907D01*
X246892Y-92524D01*
X257049D01*
X262127Y-100141D02*
Y-97602D01*
X264666D01*
Y-100141D01*
X262127D01*
X274823Y-87446D02*
X277362Y-84907D01*
X282441D01*
X284980Y-87446D01*
Y-97602D01*
X282441Y-100141D01*
X277362D01*
X274823Y-97602D01*
Y-87446D01*
X290058D02*
X292597Y-84907D01*
X297676D01*
X300215Y-87446D01*
Y-97602D01*
X297676Y-100141D01*
X292597D01*
X290058Y-97602D01*
Y-87446D01*
D11*
X0Y0D02*
X540000D01*
Y250000D01*
X1000D02*
X540000D01*
X0Y249000D02*
X1000Y250000D01*
X0Y1000D02*
Y249000D01*
D14*
X540000Y-93540D02*
Y-3540D01*
X0Y-93540D02*
Y-3540D01*
X304279Y-91000D02*
X540000D01*
X0D02*
X227593D01*
X524760Y-85920D02*
X540000Y-91000D01*
X524760Y-96080D02*
X540000Y-91000D01*
X0D02*
X15240Y-96080D01*
X0Y-91000D02*
X15240Y-85920D01*
X-62540Y250000D02*
X-2540D01*
X-62540Y0D02*
X-3540D01*
X-60000Y141557D02*
Y250000D01*
Y0D02*
Y103391D01*
X-65080Y234760D02*
X-60000Y250000D01*
X-54920Y234760D01*
X-60000Y0D02*
X-54920Y15240D01*
X-65080D02*
X-60000Y0D01*
X-200303Y-86764D02*
X-202843Y-84225D01*
X-207921D01*
X-210460Y-86764D01*
Y-89303D01*
X-207921Y-91842D01*
X-202843D01*
X-200303Y-94382D01*
Y-96921D01*
X-202843Y-99460D01*
X-207921D01*
X-210460Y-96921D01*
X-185068Y-89303D02*
X-192686D01*
X-195225Y-91842D01*
Y-96921D01*
X-192686Y-99460D01*
X-185068D01*
X-177451Y-89303D02*
X-172372D01*
X-169833Y-91842D01*
Y-99460D01*
X-177451D01*
X-179990Y-96921D01*
X-177451Y-94382D01*
X-169833D01*
X-164755Y-99460D02*
X-159676D01*
X-162216D01*
Y-84225D01*
X-164755D01*
X-144441Y-99460D02*
X-149520D01*
X-152059Y-96921D01*
Y-91842D01*
X-149520Y-89303D01*
X-144441D01*
X-141902Y-91842D01*
Y-94382D01*
X-152059D01*
X-121589Y-99460D02*
X-116510D01*
X-119050D01*
Y-84225D01*
X-121589Y-86764D01*
X-108893Y-89303D02*
X-106354D01*
Y-91842D01*
X-108893D01*
Y-89303D01*
Y-96921D02*
X-106354D01*
Y-99460D01*
X-108893D01*
Y-96921D01*
X-96197Y-99460D02*
X-91119D01*
X-93658D01*
Y-84225D01*
X-96197Y-86764D01*
X-209460Y-52225D02*
Y-64921D01*
X-206921Y-67460D01*
X-201842D01*
X-199303Y-64921D01*
Y-52225D01*
X-194225Y-67460D02*
Y-57303D01*
X-186607D01*
X-184068Y-59843D01*
Y-67460D01*
X-178990D02*
X-173911D01*
X-176451D01*
Y-57303D01*
X-178990D01*
X-163755Y-54764D02*
Y-57303D01*
X-166294D01*
X-161216D01*
X-163755D01*
Y-64921D01*
X-161216Y-67460D01*
X-153598D02*
X-145981D01*
X-143441Y-64921D01*
X-145981Y-62382D01*
X-151059D01*
X-153598Y-59843D01*
X-151059Y-57303D01*
X-143441D01*
X-138363D02*
X-135824D01*
Y-59843D01*
X-138363D01*
Y-57303D01*
Y-64921D02*
X-135824D01*
Y-67460D01*
X-138363D01*
Y-64921D01*
X-110432Y-67460D02*
Y-57303D01*
X-107893D01*
X-105354Y-59843D01*
Y-67460D01*
Y-59843D01*
X-102815Y-57303D01*
X-100275Y-59843D01*
Y-67460D01*
X-95197D02*
Y-57303D01*
X-92658D01*
X-90119Y-59843D01*
Y-67460D01*
Y-59843D01*
X-87579Y-57303D01*
X-85040Y-59843D01*
Y-67460D01*
X166540Y268618D02*
Y283853D01*
X171618Y278775D01*
X176697Y283853D01*
Y268618D01*
X189393D02*
X184314D01*
X181775Y271157D01*
Y276236D01*
X184314Y278775D01*
X189393D01*
X191932Y276236D01*
Y273697D01*
X181775D01*
X207167Y278775D02*
X199549D01*
X197010Y276236D01*
Y271157D01*
X199549Y268618D01*
X207167D01*
X212245Y283853D02*
Y268618D01*
Y276236D01*
X214784Y278775D01*
X219863D01*
X222402Y276236D01*
Y268618D01*
X230019Y278775D02*
X235098D01*
X237637Y276236D01*
Y268618D01*
X230019D01*
X227480Y271157D01*
X230019Y273697D01*
X237637D01*
X242715Y268618D02*
Y278775D01*
X250333D01*
X252872Y276236D01*
Y268618D01*
X257950D02*
X263029D01*
X260490D01*
Y278775D01*
X257950D01*
X280803D02*
X273186D01*
X270646Y276236D01*
Y271157D01*
X273186Y268618D01*
X280803D01*
X288421Y278775D02*
X293499D01*
X296038Y276236D01*
Y268618D01*
X288421D01*
X285881Y271157D01*
X288421Y273697D01*
X296038D01*
X301116Y268618D02*
X306195D01*
X303656D01*
Y283853D01*
X301116D01*
X329047D02*
Y268618D01*
X336665D01*
X339204Y271157D01*
Y281314D01*
X336665Y283853D01*
X329047D01*
X344282Y278775D02*
Y268618D01*
Y273697D01*
X346822Y276236D01*
X349361Y278775D01*
X351900D01*
X362057D02*
X367135D01*
X369674Y276236D01*
Y268618D01*
X362057D01*
X359518Y271157D01*
X362057Y273697D01*
X369674D01*
X374753Y278775D02*
Y271157D01*
X377292Y268618D01*
X379831Y271157D01*
X382370Y268618D01*
X384909Y271157D01*
Y278775D01*
X389988Y268618D02*
X395066D01*
X392527D01*
Y278775D01*
X389988D01*
X402684Y268618D02*
Y278775D01*
X410301D01*
X412840Y276236D01*
Y268618D01*
X422997Y263540D02*
X425536D01*
X428075Y266079D01*
Y278775D01*
X420458D01*
X417919Y276236D01*
Y271157D01*
X420458Y268618D01*
X428075D01*
X195540Y293540D02*
Y303697D01*
X200618Y308775D01*
X205697Y303697D01*
Y293540D01*
Y301157D01*
X195540D01*
X210775Y303697D02*
Y293540D01*
Y298618D01*
X213314Y301157D01*
X215853Y303697D01*
X218393D01*
X236167Y308775D02*
Y293540D01*
X228549D01*
X226010Y296079D01*
Y301157D01*
X228549Y303697D01*
X236167D01*
X241245D02*
Y296079D01*
X243784Y293540D01*
X251402D01*
Y303697D01*
X256480Y293540D02*
X261559D01*
X259020D01*
Y303697D01*
X256480D01*
X269176Y293540D02*
Y303697D01*
X276794D01*
X279333Y301157D01*
Y293540D01*
X286950D02*
X292029D01*
X294568Y296079D01*
Y301157D01*
X292029Y303697D01*
X286950D01*
X284411Y301157D01*
Y296079D01*
X286950Y293540D01*
X314881D02*
Y308775D01*
X325038Y293540D01*
Y308775D01*
X332656Y303697D02*
X337734D01*
X340273Y301157D01*
Y293540D01*
X332656D01*
X330117Y296079D01*
X332656Y298618D01*
X340273D01*
X345351Y293540D02*
Y303697D01*
X352969D01*
X355508Y301157D01*
Y293540D01*
X363126D02*
X368204D01*
X370743Y296079D01*
Y301157D01*
X368204Y303697D01*
X363126D01*
X360587Y301157D01*
Y296079D01*
X363126Y293540D01*
X229540Y321540D02*
Y336775D01*
X237157D01*
X239697Y334236D01*
Y329157D01*
X237157Y326618D01*
X229540D01*
X254932Y334236D02*
X252393Y336775D01*
X247314D01*
X244775Y334236D01*
Y331697D01*
X247314Y329157D01*
X252393D01*
X254932Y326618D01*
Y324079D01*
X252393Y321540D01*
X247314D01*
X244775Y324079D01*
X260010Y321540D02*
Y336775D01*
X270167Y321540D01*
Y336775D01*
X275245Y321540D02*
Y331697D01*
X280324Y336775D01*
X285402Y331697D01*
Y321540D01*
Y329157D01*
X275245D01*
X315872Y334236D02*
X313333Y336775D01*
X308255D01*
X305715Y334236D01*
Y324079D01*
X308255Y321540D01*
X313333D01*
X315872Y324079D01*
X331107Y336775D02*
X320950D01*
Y321540D01*
X331107D01*
X320950Y329157D02*
X326029D01*
X336185Y336775D02*
X346342D01*
X341264D01*
Y321540D01*
X175697Y361853D02*
X165540D01*
Y346618D01*
X175697D01*
X165540Y354236D02*
X170618D01*
X180775Y346618D02*
X185853D01*
X183314D01*
Y361853D01*
X180775D01*
X201089Y346618D02*
X196010D01*
X193471Y349157D01*
Y354236D01*
X196010Y356775D01*
X201089D01*
X203628Y354236D01*
Y351697D01*
X193471D01*
X218863Y356775D02*
X211245D01*
X208706Y354236D01*
Y349157D01*
X211245Y346618D01*
X218863D01*
X226480Y359314D02*
Y356775D01*
X223941D01*
X229020D01*
X226480D01*
Y349157D01*
X229020Y346618D01*
X236637Y356775D02*
Y346618D01*
Y351697D01*
X239176Y354236D01*
X241715Y356775D01*
X244254D01*
X254411Y346618D02*
X259490D01*
X262029Y349157D01*
Y354236D01*
X259490Y356775D01*
X254411D01*
X251872Y354236D01*
Y349157D01*
X254411Y346618D01*
X267107D02*
Y356775D01*
X274725D01*
X277264Y354236D01*
Y346618D01*
X282342D02*
X287421D01*
X284881D01*
Y356775D01*
X282342D01*
X305195D02*
X297577D01*
X295038Y354236D01*
Y349157D01*
X297577Y346618D01*
X305195D01*
X335665Y361853D02*
X325508D01*
Y346618D01*
X335665D01*
X325508Y354236D02*
X330587D01*
X340743Y346618D02*
Y356775D01*
X348361D01*
X350900Y354236D01*
Y346618D01*
X361057Y341540D02*
X363596D01*
X366135Y344079D01*
Y356775D01*
X358518D01*
X355978Y354236D01*
Y349157D01*
X358518Y346618D01*
X366135D01*
X371213D02*
X376292D01*
X373753D01*
Y356775D01*
X371213D01*
X383909Y346618D02*
Y356775D01*
X391527D01*
X394066Y354236D01*
Y346618D01*
X406762D02*
X401684D01*
X399144Y349157D01*
Y354236D01*
X401684Y356775D01*
X406762D01*
X409301Y354236D01*
Y351697D01*
X399144D01*
X421997Y346618D02*
X416919D01*
X414380Y349157D01*
Y354236D01*
X416919Y356775D01*
X421997D01*
X424536Y354236D01*
Y351697D01*
X414380D01*
X429615Y356775D02*
Y346618D01*
Y351697D01*
X432154Y354236D01*
X434693Y356775D01*
X437232D01*
X207540Y388853D02*
X217697D01*
X212618D01*
Y373618D01*
X222775Y388853D02*
Y373618D01*
Y381236D01*
X225314Y383775D01*
X230393D01*
X232932Y381236D01*
Y373618D01*
X238010D02*
X243088D01*
X240549D01*
Y383775D01*
X238010D01*
X250706D02*
Y373618D01*
Y378697D01*
X253245Y381236D01*
X255784Y383775D01*
X258324D01*
X265941D02*
Y376157D01*
X268480Y373618D01*
X276098D01*
Y383775D01*
X281176Y368540D02*
Y383775D01*
X288794D01*
X291333Y381236D01*
Y376157D01*
X288794Y373618D01*
X281176D01*
X298950Y383775D02*
X304029D01*
X306568Y381236D01*
Y373618D01*
X298950D01*
X296411Y376157D01*
X298950Y378697D01*
X306568D01*
X314186Y386314D02*
Y383775D01*
X311646D01*
X316725D01*
X314186D01*
Y376157D01*
X316725Y373618D01*
X324342Y388853D02*
Y373618D01*
Y381236D01*
X326881Y383775D01*
X331960D01*
X334499Y381236D01*
Y373618D01*
X339577D02*
X344656D01*
X342117D01*
Y383775D01*
X339577D01*
X352273Y371079D02*
X362430D01*
X367508Y373618D02*
Y388853D01*
X377665Y373618D01*
Y388853D01*
M02*
