G04*
G04 #@! TF.GenerationSoftware,Altium Limited,Altium Designer,20.1.7 (139)*
G04*
G04 Layer_Physical_Order=2*
G04 Layer_Color=16711680*
%FSLAX44Y44*%
%MOMM*%
G71*
G04*
G04 #@! TF.SameCoordinates,2F106875-763D-4B6E-BA67-D31112414CBE*
G04*
G04*
G04 #@! TF.FilePolarity,Positive*
G04*
G01*
G75*
%ADD14C,0.2540*%
%ADD28R,1.9000X1.9000*%
%ADD56R,1.6000X2.0000*%
%ADD57O,1.6000X2.0000*%
%ADD58R,1.7000X1.7000*%
%ADD59C,1.7000*%
%ADD60C,1.9000*%
G04:AMPARAMS|DCode=61|XSize=2mm|YSize=1.2mm|CornerRadius=0.36mm|HoleSize=0mm|Usage=FLASHONLY|Rotation=0.000|XOffset=0mm|YOffset=0mm|HoleType=Round|Shape=RoundedRectangle|*
%AMROUNDEDRECTD61*
21,1,2.0000,0.4800,0,0,0.0*
21,1,1.2800,1.2000,0,0,0.0*
1,1,0.7200,0.6400,-0.2400*
1,1,0.7200,-0.6400,-0.2400*
1,1,0.7200,-0.6400,0.2400*
1,1,0.7200,0.6400,0.2400*
%
%ADD61ROUNDEDRECTD61*%
%ADD62C,1.2700*%
D14*
X306000Y117380D02*
X345570D01*
X207251Y134000D02*
X210000D01*
X271000Y117000D02*
X305620D01*
X306000Y117380D01*
X210000Y134000D02*
X254000D01*
X271000Y117000D01*
X131193Y35807D02*
X262291D01*
X118000Y49000D02*
X131193Y35807D01*
X187000Y91488D02*
X188488Y90000D01*
X189000D01*
X187000Y91488D02*
Y112000D01*
X189000Y74000D02*
Y77000D01*
X206000Y94000D01*
X346000Y182000D02*
X346000D01*
X321189Y194620D02*
X355000Y160810D01*
X357190D01*
X160656Y194620D02*
X321189D01*
X315330Y212670D02*
X346000Y182000D01*
X357190Y160810D02*
X391000Y127000D01*
X61000Y243000D02*
X298724D01*
X315330Y226394D01*
Y212670D02*
Y226394D01*
X23000Y154000D02*
Y205000D01*
X61000Y243000D01*
X23000Y154000D02*
X46500D01*
X47500Y153000D01*
X23000Y88000D02*
Y154000D01*
Y88000D02*
X46500D01*
X47500Y89000D01*
X330052Y87052D02*
X345948D01*
X23000Y25000D02*
Y88000D01*
Y25000D02*
X39000Y9000D01*
X305000D02*
X312000Y16000D01*
X39000Y9000D02*
X305000D01*
X328000Y49500D02*
Y67000D01*
X312000Y33500D02*
X328000Y49500D01*
X312000Y16000D02*
Y33500D01*
X338000Y95000D02*
X345948Y87052D01*
X329770Y86770D02*
X330052Y87052D01*
X329770Y68770D02*
Y86770D01*
X328000Y67000D02*
X329770Y68770D01*
X359809Y81000D02*
X369512D01*
X291620Y88620D02*
X313000D01*
X352000Y88809D02*
Y101000D01*
Y88809D02*
X359809Y81000D01*
X313000Y88620D02*
X320280Y95900D01*
Y99490D01*
X327560Y106770D01*
X348440D01*
X349770Y105440D01*
Y103230D02*
Y105440D01*
Y103230D02*
X352000Y101000D01*
X130276Y225000D02*
X160656Y194620D01*
X345570Y117380D02*
X357726Y129536D01*
X369512Y81000D02*
X371000Y82488D01*
Y112000D01*
X277000Y126000D02*
X279702D01*
X227000Y176000D02*
X277000Y126000D01*
X279702D02*
X291702Y138000D01*
X314000D01*
X434000Y157000D02*
X461620Y129380D01*
Y97620D02*
Y129380D01*
X118000Y63000D02*
X146000Y91000D01*
X118000Y49000D02*
Y63000D01*
X148000Y40000D02*
X182000D01*
X201000Y59000D01*
X134000Y54000D02*
X148000Y40000D01*
X206607Y115000D02*
X209000D01*
X200620Y120988D02*
X206607Y115000D01*
X184821Y120988D02*
X200620D01*
X178380Y127430D02*
X184821Y120988D01*
X178380Y134571D02*
X183430Y139620D01*
X187000Y112000D02*
X195000Y104000D01*
X178380Y127430D02*
Y134571D01*
X201631Y139620D02*
X207251Y134000D01*
X174840Y103122D02*
Y140091D01*
X223472Y124528D02*
X228000Y120000D01*
X162380Y90662D02*
X174840Y103122D01*
X183430Y139620D02*
X201631D01*
X187000Y131000D02*
X188424D01*
X237031Y109517D02*
X263295D01*
X180000Y145251D02*
Y148000D01*
X188424Y131000D02*
X194896Y124528D01*
X231514Y104000D02*
X237031Y109517D01*
X174840Y140091D02*
X180000Y145251D01*
X194896Y124528D02*
X223472D01*
X195000Y104000D02*
X231514D01*
X228000Y120000D02*
X251000D01*
X201000Y59000D02*
X261000D01*
X365295Y117705D02*
X371000Y112000D01*
X383458Y129536D02*
X389994Y123000D01*
X357726Y129536D02*
X383458D01*
X365295Y117705D02*
Y119809D01*
X366402Y120916D01*
X389994Y123000D02*
X453000D01*
X391000Y127000D02*
X421512D01*
X281000Y78000D02*
X291620Y88620D01*
X247620Y69380D02*
X288380D01*
X299000Y80000D01*
X239000Y78000D02*
X247620Y69380D01*
X281000Y59000D02*
X316000D01*
X319000Y62000D01*
X481770Y162630D02*
X489000Y155400D01*
X481770Y162630D02*
Y169230D01*
X460000Y191000D02*
X481770Y169230D01*
X453000Y208000D02*
X460000Y201000D01*
Y191000D02*
Y201000D01*
X423000Y128488D02*
Y206512D01*
X424488Y208000D01*
X453000D01*
X421512Y127000D02*
X423000Y128488D01*
X121400Y225000D02*
X130276D01*
X398000Y137000D02*
Y193125D01*
X387000Y204125D02*
X398000Y193125D01*
X397000Y136000D02*
X398000Y137000D01*
X290000Y153000D02*
X323000D01*
X346000Y130000D01*
X207872Y72000D02*
X209000D01*
X172620Y65380D02*
X201252D01*
X207872Y72000D01*
X171000Y67000D02*
X172620Y65380D01*
X138000Y109000D02*
Y110000D01*
X150000Y122000D01*
X499000Y197000D02*
X500000D01*
X498000Y198000D02*
X499000Y197000D01*
X500000D02*
X503630Y193370D01*
Y115370D02*
Y193370D01*
Y115370D02*
X514400Y104600D01*
X436000Y167769D02*
X486859Y116910D01*
X436000Y167769D02*
Y197000D01*
X486859Y106741D02*
Y116910D01*
Y106741D02*
X489000Y104600D01*
X162380Y50620D02*
Y90662D01*
Y50620D02*
X164000Y49000D01*
X356000Y109632D02*
Y112000D01*
Y109632D02*
X362000Y103632D01*
Y91000D02*
Y103632D01*
X94000Y61000D02*
X125000Y92000D01*
X42000Y61000D02*
X94000D01*
X125000Y92000D02*
Y146000D01*
X134000Y155000D01*
X115000Y115000D02*
X116000Y116000D01*
Y144000D01*
X40000Y182000D02*
X98000D01*
X114000Y166000D01*
X280000Y163000D02*
X303000Y186000D01*
X308500D01*
X387000Y204125D02*
Y244000D01*
X209000Y50000D02*
X210000Y49000D01*
X305000D01*
D28*
X338000Y95000D02*
D03*
D56*
X477000Y226000D02*
D03*
X477400Y24000D02*
D03*
D57*
X451600Y226000D02*
D03*
X426200D02*
D03*
X400800D02*
D03*
X375400D02*
D03*
X274800Y225000D02*
D03*
X249400D02*
D03*
X351000D02*
D03*
X325600D02*
D03*
X300200D02*
D03*
X223000D02*
D03*
X197600D02*
D03*
X172200D02*
D03*
X146800D02*
D03*
X121400D02*
D03*
X452000Y24000D02*
D03*
X426600D02*
D03*
X401200D02*
D03*
X375800D02*
D03*
X275200Y23000D02*
D03*
X249800D02*
D03*
X351400D02*
D03*
X326000D02*
D03*
X300600D02*
D03*
X223400D02*
D03*
X198000D02*
D03*
X172600D02*
D03*
X147200D02*
D03*
X121800D02*
D03*
D58*
X489000Y155400D02*
D03*
D59*
X514400Y104600D02*
D03*
Y130000D02*
D03*
Y155400D02*
D03*
X489000Y104600D02*
D03*
Y130000D02*
D03*
D60*
X383000Y95000D02*
D03*
Y160000D02*
D03*
X338000D02*
D03*
D61*
X23000Y88000D02*
D03*
Y154000D02*
D03*
D62*
X262291Y35807D02*
D03*
X239000Y78000D02*
D03*
X299000Y80000D02*
D03*
X171000Y67000D02*
D03*
X305000Y49000D02*
D03*
X209000Y50000D02*
D03*
X453000Y123000D02*
D03*
X280000Y165000D02*
D03*
X150000Y122000D02*
D03*
X261000Y59000D02*
D03*
X308500Y186000D02*
D03*
X138000Y109000D02*
D03*
X209000Y115000D02*
D03*
X346000Y130000D02*
D03*
X210000Y134000D02*
D03*
X40000Y182000D02*
D03*
X116000Y144000D02*
D03*
X134000Y155000D02*
D03*
X115000Y115000D02*
D03*
X180000Y148000D02*
D03*
X164000Y49000D02*
D03*
X134000Y54000D02*
D03*
X114000Y166000D02*
D03*
X42000Y61000D02*
D03*
X356000Y112000D02*
D03*
X263295Y109517D02*
D03*
X436000Y197000D02*
D03*
X498000Y198000D02*
D03*
X362000Y91000D02*
D03*
X209000Y72000D02*
D03*
X397000Y136000D02*
D03*
X387000Y244000D02*
D03*
X189000Y74000D02*
D03*
X206000Y94000D02*
D03*
X366402Y120916D02*
D03*
X281000Y59000D02*
D03*
X146000Y91000D02*
D03*
X434000Y157000D02*
D03*
X281000Y78000D02*
D03*
X189000Y90000D02*
D03*
X227000Y176000D02*
D03*
X314000Y138000D02*
D03*
X277000Y126000D02*
D03*
X346000Y182000D02*
D03*
X187000Y131000D02*
D03*
Y112000D02*
D03*
X47500Y89000D02*
D03*
X457000Y94500D02*
D03*
X251000Y120000D02*
D03*
X319000Y62000D02*
D03*
X47500Y153000D02*
D03*
X290000D02*
D03*
M02*
